<svg width="400" height="390" viewBox="0 0 400 390" fill="none" xmlns="http://www.w3.org/2000/svg">
<ellipse cx="200" cy="195" rx="200" ry="195" fill="black"/>
<path d="M48.5442 218H41.0897L57.8397 171.455H65.9533L82.7033 218H75.2487L62.0897 179.909H61.726L48.5442 218ZM49.7942 199.773H73.976V205.682H49.7942V199.773ZM99.6649 218V171.455H116.71C120.013 171.455 122.748 172 124.915 173.091C127.082 174.167 128.703 175.629 129.779 177.477C130.854 179.311 131.392 181.379 131.392 183.682C131.392 185.621 131.036 187.258 130.324 188.591C129.612 189.909 128.657 190.97 127.46 191.773C126.279 192.561 124.975 193.136 123.551 193.5V193.955C125.097 194.03 126.604 194.53 128.074 195.455C129.559 196.364 130.786 197.659 131.756 199.341C132.725 201.023 133.21 203.068 133.21 205.477C133.21 207.856 132.65 209.992 131.529 211.886C130.422 213.765 128.71 215.258 126.392 216.364C124.074 217.455 121.112 218 117.506 218H99.6649ZM106.688 211.977H116.824C120.188 211.977 122.597 211.326 124.051 210.023C125.506 208.72 126.233 207.091 126.233 205.136C126.233 203.667 125.862 202.318 125.119 201.091C124.377 199.864 123.316 198.886 121.938 198.159C120.574 197.432 118.953 197.068 117.074 197.068H106.688V211.977ZM106.688 191.591H116.097C117.672 191.591 119.089 191.288 120.347 190.682C121.619 190.076 122.627 189.227 123.369 188.136C124.127 187.03 124.506 185.727 124.506 184.227C124.506 182.303 123.832 180.689 122.483 179.386C121.135 178.083 119.066 177.432 116.279 177.432H106.688V191.591ZM151.78 218V171.455H180.962V177.5H158.803V191.682H179.439V197.705H158.803V211.955H181.234V218H151.78ZM200.582 218V171.455H207.605V211.955H228.696V218H200.582ZM246.947 218V171.455H253.97V211.955H275.061V218H246.947ZM300.335 171.455V218H293.312V171.455H300.335ZM324.734 218H317.28L334.03 171.455H342.143L358.893 218H351.439L338.28 179.909H337.916L324.734 218ZM325.984 199.773H350.166V205.682H325.984V199.773Z" fill="white"/>
</svg>
